<svg xmlns="http://www.w3.org/2000/svg" xmlns:xlink="http://www.w3.org/1999/xlink" xmlns:lucid="lucid" width="1562" height="722"><g transform="translate(-459 41)" lucid:page-tab-id="0_0"><path d="M0-500h2000v1500H0z" fill="#fff"/><path d="M920 166a6 6 0 0 1 6-6h1068a6 6 0 0 1 6 6v488a6 6 0 0 1-6 6H926a6 6 0 0 1-6-6z" fill="#fff"/><path d="M937.96 160h7.96m7.98 0h7.97m7.97 0h7.97m7.98 0h7.97m7.97 0h7.97m7.96 0h7.97m7.97 0h7.97m7.97 0h7.97m7.98 0h7.97m7.97 0h7.97m7.96 0h7.97m7.97 0h7.97m7.97 0h7.97m7.98 0h7.97m7.97 0h7.97m7.96 0h7.97m7.97 0h7.97m7.97 0h7.97m7.98 0h7.97m7.97 0h7.97m7.96 0h7.97m7.97 0h7.97m7.97 0h7.97m7.98 0h7.97m7.97 0h7.97m7.96 0h7.97m7.97 0h7.97m7.97 0h7.97m7.98 0h7.97m7.97 0h7.97m7.96 0h7.97m7.97 0h7.98m7.97 0h7.97m7.96 0h7.97m7.97 0h7.98m7.97 0h7.97m7.97 0h7.98m7.97 0h7.97m7.97 0h7.96m7.97 0h7.97m7.97 0h7.97m7.97 0h7.98m7.97 0h7.97m7.97 0h7.96m7.97 0h7.97m7.97 0h7.97m7.97 0h7.98m7.97 0h7.97m7.97 0h7.96m7.97 0h7.97m7.97 0h7.97m7.97 0h7.98m7.97 0h7.97m7.97 0h7.96m7.97 0h7.97m7.97 0h7.97m7.97 0h7.98m7.97 0h7.97m7.97 0h7.96m7.97 0h7.97m7.97 0h7.97m7.97 0h7.98m7.97 0h7.97m7.97 0h7.96m7.97 0h7.97m7.98 0h7.97m7.97 0h3.98l.94.07.9.22.88.35.8.5.72.6.6.72.5.8.37.88.23.9.07.95v3.94m0 7.87v7.88m0 7.87v7.87m0 7.87v7.86m0 7.87v7.87m0 7.87v7.88m0 7.87v7.87m0 7.86v7.87m0 7.87v7.87m0 7.87v7.87m0 7.88v7.88m0 7.87v7.87m0 7.87v7.87m0 7.87v7.88m0 7.87v7.87m0 7.87v7.87m0 7.87v7.87m0 7.88v7.87m0 7.87v7.87m0 7.86v7.87m0 7.87v7.87m0 7.88v7.87m0 7.87v7.86m0 7.87V532m0 7.87v7.87m0 7.87v7.88m0 7.88v7.87m0 7.87v7.87m0 7.87v7.87m0 7.88v7.87m0 7.87v7.87m0 7.87V654l-.07.94-.22.9-.35.88-.5.8-.6.72-.72.6-.8.5-.88.37-.9.23-.95.07h-3.98m-7.97 0h-7.97m-7.98 0h-7.97m-7.97 0h-7.97m-7.98 0h-7.97m-7.97 0h-7.97m-7.96 0h-7.97m-7.97 0h-7.97m-7.97 0h-7.97m-7.98 0h-7.97m-7.97 0h-7.97m-7.96 0h-7.97m-7.97 0h-7.97m-7.97 0h-7.97m-7.98 0h-7.97m-7.97 0h-7.97m-7.96 0h-7.97m-7.97 0h-7.97m-7.97 0h-7.97m-7.98 0h-7.97m-7.97 0h-7.97m-7.96 0h-7.97m-7.97 0h-7.97m-7.97 0h-7.97m-7.98 0h-7.97m-7.97 0h-7.97m-7.96 0h-7.97m-7.97 0h-7.97m-7.97 0h-7.97m-7.98 0h-7.97m-7.97 0h-7.97m-7.96 0h-7.97m-7.97 0h-7.98m-7.97 0h-7.97m-7.96 0h-7.97m-7.97 0h-7.98m-7.97 0h-7.97m-7.97 0h-7.98m-7.97 0h-7.97m-7.97 0h-7.96m-7.97 0h-7.97m-7.97 0h-7.97m-7.97 0h-7.98m-7.97 0h-7.97m-7.97 0h-7.96m-7.97 0h-7.97m-7.97 0h-7.97m-7.97 0h-7.98m-7.97 0h-7.97m-7.97 0h-7.96m-7.97 0H1193m-7.97 0h-7.97m-7.97 0h-7.98m-7.97 0h-7.97m-7.97 0h-7.96m-7.97 0h-7.97m-7.97 0h-7.97m-7.97 0h-7.98m-7.97 0h-7.97m-7.97 0h-7.96m-7.97 0h-7.97m-7.97 0h-7.97m-7.97 0h-7.98m-7.97 0h-7.97m-7.97 0h-7.96m-7.97 0h-7.97m-7.98 0h-7.96m-7.98 0H926l-.94-.07-.9-.22-.88-.35-.8-.5-.72-.6-.6-.72-.5-.8-.37-.88-.23-.9-.07-.95v-3.93m0-7.88v-7.88m0-7.87v-7.87m0-7.87v-7.86m0-7.87v-7.87m0-7.87v-7.88m0-7.87v-7.87m0-7.86v-7.87m0-7.87v-7.87m0-7.87v-7.87m0-7.88v-7.88m0-7.87v-7.87m0-7.87v-7.87m0-7.87v-7.88m0-7.87v-7.87m0-7.87v-7.87m0-7.87v-7.87m0-7.88v-7.87m0-7.87v-7.87m0-7.86v-7.87m0-7.87v-7.87m0-7.88v-7.87m0-7.87v-7.86m0-7.87V288m0-7.87v-7.87m0-7.87v-7.88m0-7.87v-7.88m0-7.87v-7.87m0-7.87v-7.87m0-7.88v-7.87m0-7.87v-7.87m0-7.87V166l.07-.94.22-.9.35-.88.5-.8.6-.72.72-.6.8-.5.88-.37.9-.23.95-.07h4" stroke="#282c33" stroke-width="2" fill="none"/><path d="M1093.54 245.47A9.28 9.28 0 0 1 1102 240h96a9.28 9.28 0 0 1 8.46 5.47l31.08 69.06a13.33 13.33 0 0 1 0 10.94l-31.08 69.06A9.28 9.28 0 0 1 1198 400h-96a9.28 9.28 0 0 1-8.46-5.47l-31.08-69.06a13.33 13.33 0 0 1 0-10.94z" stroke="#282c33" stroke-width="2" fill="#fff"/><path d="M1020 182.67a6 6 0 0 1 6-6h228a6 6 0 0 1 6 6V234a6 6 0 0 1-6 6h-228a6 6 0 0 1-6-6z" stroke="#000" stroke-opacity="0" stroke-width="2" fill="#fff" fill-opacity="0"/><use xlink:href="#a" transform="matrix(1,0,0,1,1025,181.66666666666666) translate(4.043209876543202 31.27777777777778)"/><use xlink:href="#b" transform="matrix(1,0,0,1,1025,181.66666666666666) translate(101.57407407407406 31.27777777777778)"/><path d="M1120 290.95v58.07c0 6.15 13.43 10.98 29.92 10.98v-69.05z" stroke="#000" stroke-opacity="0" stroke-width="1.32" fill="#3998c5"/><path d="M1149.6 360h.5c16.6 0 29.9-4.83 29.9-10.98v-58.07h-30.4z" stroke="#000" stroke-opacity="0" stroke-width="1.32" fill="#59b3d8"/><path d="M1180 290.95c0 5.95-13.44 10.94-29.94 10.94-16.44 0-30.06-5-30.06-10.95 0-5.96 13.44-10.95 29.94-10.95 16.44 0 30.06 5 30.06 10.95" stroke="#000" stroke-opacity="0" stroke-width="1.32" fill="#fff"/><path d="M1173.9 290.3c0 4.03-10.7 7.24-23.8 7.24-13.16 0-24.02-3.2-24.02-7.24 0-4.03 10.72-7.24 23.82-7.24 13.15 0 24 3.2 24 7.24" stroke="#000" stroke-opacity="0" stroke-width="1.32" fill="#7fb900"/><path d="M1168.8 294.65c3.2-1.28 4.96-2.74 4.96-4.35 0-4.02-10.73-7.24-23.84-7.24-13.1 0-23.84 3.22-23.84 7.24 0 1.6 1.9 3.22 4.96 4.35 4.34-1.78 11.2-2.74 18.88-2.74 6.72-.13 12.44.7 18.88 2.75" stroke="#000" stroke-opacity="0" stroke-width="1.32" fill="#b7d332"/><path d="M1166.88 334.1c-4.78.98-5.12-.65-5.12-.65 5.04-7.5 7.13-17.02 5.34-19.35-4.97-6.34-13.52-3.35-13.67-3.27h-.03c-1.12-.2-2.06-.3-3.18-.3-1.9-.13-3.5.38-5.04 1.5 0 0-15.27-6.33-14.56 7.94.15 3.07 4.33 23.04 9.3 16.98 1.83-2.18 3.58-4.04 3.58-4.04.93.63 1.9.86 3.03.8l.1-.1c-.03.32-.03.55 0 .86-1.26 1.44-.9 1.7-3.47 2.22-2.57.54-1.04 1.5-.07 1.75 2.23.74 4.5 0 5.9-1.9l-.1.3c.76 1.52 1 3 .8 4.67-.15 1.6-.08 2.95.3 4.5.4 1.06.82 3.5 4.18 2.8 2.5-.27 4.4-2.3 4.48-4.8.15-1.88.5-1.6.5-3.28l.25-.82c.3-2.52.08-3.34 1.8-2.95l.4.04c1.43.03 2.66-.17 3.97-.67 2.13-1 3.36-2.64 1.27-2.22z" stroke="#000" stroke-opacity="0" stroke-width="1.32" fill="#336790"/><path d="M1146.76 321.57c-.23-.12-.44-.2-.7-.22-.35-.08-.68-.03-1 .15-.1.06-.15.14-.16.24-.05.32.42.93 1.02 1 .05.02.1.02.14.02.45 0 .82-.25 1-.65l.02-.05c.03-.1 0-.3-.32-.48zM1159.92 321.07c-.24-.05-.45-.05-.7-.02-.48.08-.96.3-.92.6v.02c.18.37.52.6.93.6h.13c.27-.06.5-.18.68-.4.15-.13.24-.3.25-.5-.03-.14-.16-.25-.38-.3z" stroke="#000" stroke-opacity="0" stroke-width="1.32" fill="#fff"/><path d="M1168.3 334.05c-.23-.72-1.23-.52-1.57-.44-3.33.73-4.28 0-4.47-.15 2.48-3.82 4.05-7.37 5.2-11.76.9-3.76.87-6.7-.04-7.9-2.14-2.7-5.05-4.2-8.45-4.23-2.03-.08-3.7.16-5.62.76l-.08.04h-.03l-.08.04c-1.03-.27-1.9-.4-2.98-.4-1.87-.07-3.48.4-5.05 1.44-1.64-.6-3.1-1-4.8-1.23-2.57-.47-4.94-.03-7.16 1.32-2.22 1.6-3.25 4.43-3.02 8.42.08 1.9 2.83 16.98 7.15 18.42 1.14.3 2.33-.16 2.94-1.16 1.53-1.87 2.98-3.4 3.33-3.8.8.45 1.6.65 2.52.7v.23c-.16.2-.32.4-.43.56-.6.75-.73.9-2.6 1.3-.76.16-1.76.44-1.8 1.2 0 .76 1.04 1.24 1.68 1.4 2.1.67 4.25.15 5.78-1.4-.16 3.15 0 5.82.57 8.97.5 1.83 2.06 3.07 3.97 3.07.46 0 .88-.04 1.34-.16 2.54-.2 4.48-2.2 4.64-4.74.26-1.6.76-5.47.95-7.42.6.2 1.14.28 1.8.24 1.33.04 2.47-.2 3.73-.68 1.2-.6 2.87-1.75 2.57-2.63zm-8.87 2.07c-.12 1.08-.73 6.38-1.07 8.26-.08 2.2-1.76 3.9-3.94 4.02-1.76.6-3.67-.32-4.24-2.1-.04-.1-.04-.17-.08-.3-.57-3.62-.7-6.73-.46-10.43 0-.04 0-.12-.04-.2-.03-.12-.03-.24-.07-.4-.2-.56-.54-1-1.1-1.28l-.05-.05c-.42-.24-.92-.28-1.37-.08.16-.68.3-1.2.58-1.83l.08-.24c.1-.28.22-.56.34-.84.73-1.6 1.68-3.7.65-8.57-.04-.1-.04-.13-.04-.2-.37-1.6-1.94-2.6-3.5-2.2-1.27.16-2.3.52-3.37 1.2.08-3.04 1.03-5.6 2.94-7.94 1.53-1.47 3.37-2.2 5.5-2.07 3.26 0 6.05 1.22 8.26 3.62 1.42 1.5 2.37 3.03 3.02 5.02-2.25-.28-3.78.12-4.55 1.2-1.56 2.3.92 6.85 2.15 9.05.23.34.42.74.5.9.34.8.72 1.4 1.3 2.07.14.2.26.36.4.6h-.1c-.65.2-1.84.52-1.72 2.75zm-21.86 1.4c-1.42-.48-3.02-3.4-4.5-8.2-1.05-3.24-1.66-6.03-2.04-9.42-.2-3.67.7-6.26 2.64-7.66 1.45-.9 2.94-1.3 4.62-1.23 2.17.05 4 .37 6.03 1.08-.08.08-.2.16-.27.28-3.36 3.4-3.24 9.25-3.24 9.5v.03c.15 1.9.1 3.58-.08 5.5-.3 1.87.23 3.62 1.57 5.02.2.2.35.3.54.47-.53.6-1.87 2.03-3.3 3.74-.67.8-1.32 1.12-1.97.88zm4-10.05c.24-1.9.28-3.6.12-5.5 1.33-1.04 2.78-1.5 4.46-1.4.88.13 1.53.8 1.6 1.68 1 4.58.16 6.5-.56 8.05-.12.28-.27.6-.35.88l-.1.24c-.24.6-.43 1.16-.6 1.8-1.25 0-2.35-.5-3.23-1.4-1.1-1.2-1.57-2.7-1.34-4.35zm5.36 7.22c.04 0 .04-.05.08-.05.2-.32.62-.44.96-.24l.08.05c.6.32.88 1.12.57 1.75-1.25 1.76-3.4 2.44-5.42 1.76-.38-.08-.72-.24-1.03-.48.35-.24.7-.36 1.07-.4 2.1-.44 2.4-.72 3.1-1.63.2-.2.38-.44.65-.76zm13.4-4.36c-.06-.2-.25-.5-.48-1h-.04c-1.02-1.87-3.47-6.25-2.17-8.1.65-.75 1.57-1.06 2.52-.9.5 0 .88 0 1.38.08 0 .63-.08 1.2-.15 1.83-.16.68-.2 1.27-.23 1.95 0 .8.04 1.44.15 2.2.38 1.7.23 3.27-.5 4.86-.2-.32-.3-.56-.45-.92zm6.02-7.97c-1.15 3.8-2.53 6.82-4.6 10.2-.07-.1-.14-.23-.26-.35l-.1-.16h-.02c1-1.84 1.26-3.75.8-5.78-.12-.72-.15-1.32-.15-2.04.04-.68.07-1.2.2-1.87.14-.76.18-1.44.18-2.23 0-.12.05-.2 0-.28-1.14-4.2-3.8-7.3-7.8-8.97 7.16-1.77 10.83 1.78 12.1 3.42.94 1.23.83 4.1-.35 8.05zm-4.93 11.84c.1 0 .2-.03.3-.07.08.04.15.12.23.16 1.64.67 3.3.75 4.97.2.15-.05.3-.1.46-.1-.58.65-1.2 1.13-2.03 1.45-1.64.7-3.2.83-4.93.35-.1-.04-.1-.08-.1-.08-.13-1.55.48-1.7 1.1-1.9z" stroke="#000" stroke-opacity="0" stroke-width="1.32" fill="#fff"/><use xlink:href="#c" transform="matrix(1,0,0,1,1090,369) translate(14 14.4)"/><use xlink:href="#d" transform="matrix(1,0,0,1,1090,369) translate(60 36)"/><path d="M1453.54 245.47A9.28 9.28 0 0 1 1462 240h96a9.28 9.28 0 0 1 8.46 5.47l31.08 69.06a13.33 13.33 0 0 1 0 10.94l-31.08 69.06A9.28 9.28 0 0 1 1558 400h-96a9.28 9.28 0 0 1-8.46-5.47l-31.08-69.06a13.33 13.33 0 0 1 0-10.94z" stroke="#282c33" stroke-width="2" fill="#fff"/><path d="M1380 182.67a6 6 0 0 1 6-6h228a6 6 0 0 1 6 6V234a6 6 0 0 1-6 6h-228a6 6 0 0 1-6-6z" stroke="#000" stroke-opacity="0" stroke-width="2" fill="#fff" fill-opacity="0"/><use xlink:href="#e" transform="matrix(1,0,0,1,1385,181.66666666666666) translate(20.771604938271594 31.27777777777778)"/><use xlink:href="#b" transform="matrix(1,0,0,1,1385,181.66666666666666) translate(84.84567901234566 31.27777777777778)"/><path d="M1480 290.95v58.07c0 6.15 13.43 10.98 29.92 10.98v-69.05z" stroke="#000" stroke-opacity="0" stroke-width="1.32" fill="#3998c5"/><path d="M1509.6 360h.5c16.6 0 29.9-4.83 29.9-10.98v-58.07h-30.4z" stroke="#000" stroke-opacity="0" stroke-width="1.32" fill="#59b3d8"/><path d="M1540 290.95c0 5.95-13.44 10.94-29.94 10.94-16.44 0-30.06-5-30.06-10.95 0-5.96 13.44-10.95 29.94-10.95 16.44 0 30.06 5 30.06 10.95" stroke="#000" stroke-opacity="0" stroke-width="1.32" fill="#fff"/><path d="M1533.9 290.3c0 4.03-10.7 7.24-23.8 7.24-13.16 0-24.02-3.2-24.02-7.24 0-4.03 10.72-7.24 23.82-7.24 13.15 0 24 3.2 24 7.24" stroke="#000" stroke-opacity="0" stroke-width="1.32" fill="#7fb900"/><path d="M1528.8 294.65c3.2-1.28 4.96-2.74 4.96-4.35 0-4.02-10.73-7.24-23.84-7.24-13.1 0-23.84 3.22-23.84 7.24 0 1.6 1.9 3.22 4.96 4.35 4.34-1.78 11.2-2.74 18.88-2.74 6.72-.13 12.44.7 18.88 2.75" stroke="#000" stroke-opacity="0" stroke-width="1.32" fill="#b7d332"/><path d="M1526.88 334.1c-4.78.98-5.12-.65-5.12-.65 5.04-7.5 7.13-17.02 5.34-19.35-4.97-6.34-13.52-3.35-13.67-3.27h-.03c-1.12-.2-2.06-.3-3.18-.3-1.9-.13-3.5.38-5.04 1.5 0 0-15.27-6.33-14.56 7.94.15 3.07 4.33 23.04 9.3 16.98 1.83-2.18 3.58-4.04 3.58-4.04.93.63 1.9.86 3.03.8l.1-.1c-.03.32-.03.55 0 .86-1.26 1.44-.9 1.7-3.47 2.22-2.57.54-1.04 1.5-.07 1.75 2.23.74 4.5 0 5.9-1.9l-.1.3c.76 1.52 1 3 .8 4.67-.15 1.6-.08 2.95.3 4.5.4 1.06.82 3.5 4.18 2.8 2.5-.27 4.4-2.3 4.48-4.8.15-1.88.5-1.6.5-3.28l.25-.82c.3-2.52.08-3.34 1.8-2.95l.4.04c1.43.03 2.66-.17 3.97-.67 2.13-1 3.36-2.64 1.27-2.22z" stroke="#000" stroke-opacity="0" stroke-width="1.32" fill="#336790"/><path d="M1506.76 321.57c-.23-.12-.44-.2-.7-.22-.35-.08-.68-.03-1 .15-.1.06-.15.14-.16.24-.05.32.42.93 1.02 1 .05.02.1.02.14.02.45 0 .82-.25 1-.65l.02-.05c.03-.1 0-.3-.32-.48zM1519.92 321.07c-.24-.05-.45-.05-.7-.02-.48.08-.96.3-.92.6v.02c.18.37.52.6.93.6h.13c.27-.06.5-.18.68-.4.15-.13.24-.3.25-.5-.03-.14-.16-.25-.38-.3z" stroke="#000" stroke-opacity="0" stroke-width="1.32" fill="#fff"/><path d="M1528.3 334.05c-.23-.72-1.23-.52-1.57-.44-3.33.73-4.28 0-4.47-.15 2.48-3.82 4.05-7.37 5.2-11.76.9-3.76.87-6.7-.04-7.9-2.14-2.7-5.05-4.2-8.45-4.23-2.03-.08-3.7.16-5.62.76l-.08.04h-.03l-.08.04c-1.03-.27-1.9-.4-2.98-.4-1.87-.07-3.48.4-5.05 1.44-1.64-.6-3.1-1-4.8-1.23-2.57-.47-4.94-.03-7.16 1.32-2.22 1.6-3.25 4.43-3.02 8.42.08 1.9 2.83 16.98 7.15 18.42 1.14.3 2.33-.16 2.94-1.16 1.53-1.87 2.98-3.4 3.33-3.8.8.45 1.6.65 2.52.7v.23c-.16.2-.32.4-.43.56-.6.75-.73.9-2.6 1.3-.76.16-1.76.44-1.8 1.2 0 .76 1.04 1.24 1.68 1.4 2.1.67 4.25.15 5.78-1.4-.16 3.15 0 5.82.57 8.97.5 1.83 2.06 3.07 3.97 3.07.46 0 .88-.04 1.34-.16 2.54-.2 4.48-2.2 4.64-4.74.26-1.6.76-5.47.95-7.42.6.2 1.14.28 1.8.24 1.33.04 2.47-.2 3.73-.68 1.2-.6 2.87-1.75 2.57-2.63zm-8.87 2.07c-.12 1.08-.73 6.38-1.07 8.26-.08 2.2-1.76 3.9-3.94 4.02-1.76.6-3.67-.32-4.24-2.1-.04-.1-.04-.17-.08-.3-.57-3.62-.7-6.73-.46-10.43 0-.04 0-.12-.04-.2-.03-.12-.03-.24-.07-.4-.2-.56-.54-1-1.1-1.28l-.05-.05c-.42-.24-.92-.28-1.37-.08.16-.68.3-1.2.58-1.83l.08-.24c.1-.28.22-.56.34-.84.73-1.6 1.68-3.7.65-8.57-.04-.1-.04-.13-.04-.2-.37-1.6-1.94-2.6-3.5-2.2-1.27.16-2.3.52-3.37 1.2.08-3.04 1.03-5.6 2.94-7.94 1.53-1.47 3.37-2.2 5.5-2.07 3.26 0 6.05 1.22 8.26 3.62 1.42 1.5 2.37 3.03 3.02 5.02-2.25-.28-3.78.12-4.55 1.2-1.56 2.3.92 6.85 2.15 9.05.23.34.42.74.5.9.34.8.72 1.4 1.3 2.07.14.2.26.36.4.6h-.1c-.65.2-1.84.52-1.72 2.75zm-21.86 1.4c-1.42-.48-3.02-3.4-4.5-8.2-1.05-3.24-1.66-6.03-2.04-9.42-.2-3.67.7-6.26 2.64-7.66 1.45-.9 2.94-1.3 4.62-1.23 2.17.05 4 .37 6.03 1.08-.08.08-.2.16-.27.28-3.36 3.4-3.24 9.25-3.24 9.5v.03c.15 1.9.1 3.58-.08 5.5-.3 1.87.23 3.62 1.57 5.02.2.2.35.3.54.47-.53.6-1.87 2.03-3.3 3.74-.67.8-1.32 1.12-1.97.88zm4-10.05c.24-1.9.28-3.6.12-5.5 1.33-1.04 2.78-1.5 4.46-1.4.88.13 1.53.8 1.6 1.68 1 4.58.16 6.5-.56 8.05-.12.28-.27.6-.35.88l-.1.24c-.24.6-.43 1.16-.6 1.8-1.25 0-2.35-.5-3.23-1.4-1.1-1.2-1.57-2.7-1.34-4.35zm5.36 7.22c.04 0 .04-.05.08-.05.2-.32.62-.44.96-.24l.08.05c.6.32.88 1.12.57 1.75-1.25 1.76-3.4 2.44-5.42 1.76-.38-.08-.72-.24-1.03-.48.35-.24.7-.36 1.07-.4 2.1-.44 2.4-.72 3.1-1.63.2-.2.38-.44.65-.76zm13.4-4.36c-.06-.2-.25-.5-.48-1h-.04c-1.02-1.87-3.47-6.25-2.17-8.1.65-.75 1.57-1.06 2.52-.9.5 0 .88 0 1.38.08 0 .63-.08 1.2-.15 1.83-.16.68-.2 1.27-.23 1.95 0 .8.04 1.44.15 2.2.38 1.7.23 3.27-.5 4.86-.2-.32-.3-.56-.45-.92zm6.02-7.97c-1.15 3.8-2.53 6.82-4.6 10.2-.07-.1-.14-.23-.26-.35l-.1-.16h-.02c1-1.84 1.26-3.75.8-5.78-.12-.72-.15-1.32-.15-2.04.04-.68.07-1.2.2-1.87.14-.76.18-1.44.18-2.23 0-.12.05-.2 0-.28-1.14-4.2-3.8-7.3-7.8-8.97 7.16-1.77 10.83 1.78 12.1 3.42.94 1.23.83 4.1-.35 8.05zm-4.93 11.84c.1 0 .2-.03.3-.07.08.04.15.12.23.16 1.64.67 3.3.75 4.97.2.15-.05.3-.1.46-.1-.58.65-1.2 1.13-2.03 1.45-1.64.7-3.2.83-4.93.35-.1-.04-.1-.08-.1-.08-.13-1.55.48-1.7 1.1-1.9z" stroke="#000" stroke-opacity="0" stroke-width="1.32" fill="#fff"/><use xlink:href="#f" transform="matrix(1,0,0,1,1450,369) translate(28.025 14.4)"/><path d="M1273.54 468.8a9.28 9.28 0 0 1 8.46-5.47h96a9.28 9.28 0 0 1 8.46 5.48l31.08 69.06a13.33 13.33 0 0 1 0 10.94l-31.08 69.06a9.28 9.28 0 0 1-8.46 5.47h-96a9.28 9.28 0 0 1-8.46-5.47l-31.08-69.06a13.33 13.33 0 0 1 0-10.94z" stroke="#282c33" stroke-width="2" fill="#fff"/><path d="M1200 406a6 6 0 0 1 6-6h228a6 6 0 0 1 6 6v51.33a6 6 0 0 1-6 6h-228a6 6 0 0 1-6-6z" stroke="#000" stroke-opacity="0" stroke-width="2" fill="#fff" fill-opacity="0"/><use xlink:href="#g" transform="matrix(1,0,0,1,1205,405) translate(0.3703703703703525 31.27777777777778)"/><use xlink:href="#b" transform="matrix(1,0,0,1,1205,405) translate(105.2469135802469 31.27777777777778)"/><path d="M1300 514.28v58.07c0 6.15 13.43 10.98 29.92 10.98v-69.05z" stroke="#000" stroke-opacity="0" stroke-width="1.32" fill="#3998c5"/><path d="M1329.6 583.33h.5c16.6 0 29.9-4.83 29.9-10.98v-58.07h-30.4z" stroke="#000" stroke-opacity="0" stroke-width="1.32" fill="#59b3d8"/><path d="M1360 514.28c0 5.95-13.44 10.95-29.94 10.95-16.44 0-30.06-5-30.06-10.95 0-5.95 13.44-10.95 29.94-10.95 16.44 0 30.06 5 30.06 10.95" stroke="#000" stroke-opacity="0" stroke-width="1.32" fill="#fff"/><path d="M1353.9 513.63c0 4.03-10.7 7.25-23.8 7.25-13.16 0-24.02-3.22-24.02-7.25 0-4.02 10.72-7.24 23.82-7.24 13.15 0 24 3.2 24 7.23" stroke="#000" stroke-opacity="0" stroke-width="1.32" fill="#7fb900"/><path d="M1348.8 517.98c3.2-1.27 4.96-2.74 4.96-4.35 0-4.02-10.73-7.24-23.84-7.24-13.1 0-23.84 3.2-23.84 7.23 0 1.62 1.9 3.23 4.96 4.35 4.34-1.77 11.2-2.74 18.88-2.74 6.72-.13 12.44.7 18.88 2.74" stroke="#000" stroke-opacity="0" stroke-width="1.32" fill="#b7d332"/><path d="M1346.88 557.45c-4.78.97-5.12-.66-5.12-.66 5.04-7.5 7.13-17.04 5.34-19.37-4.97-6.33-13.52-3.34-13.67-3.26h-.03c-1.12-.2-2.06-.3-3.18-.3-1.9-.13-3.5.37-5.04 1.5 0 0-15.27-6.34-14.56 7.93.15 3.07 4.33 23.05 9.3 16.98 1.83-2.17 3.58-4.04 3.58-4.04.93.62 1.9.86 3.03.78l.1-.08c-.03.3-.03.55 0 .86-1.26 1.44-.9 1.7-3.47 2.2-2.57.56-1.04 1.53-.07 1.76 2.23.74 4.5 0 5.9-1.9l-.1.3c.76 1.52 1 3 .8 4.67-.15 1.6-.08 2.96.3 4.5.4 1.06.82 3.5 4.18 2.8 2.5-.26 4.4-2.28 4.48-4.8.15-1.88.5-1.6.5-3.28l.25-.8c.3-2.54.08-3.35 1.8-2.97l.4.04c1.43.04 2.66-.15 3.97-.66 2.13-1 3.36-2.64 1.27-2.2z" stroke="#000" stroke-opacity="0" stroke-width="1.32" fill="#336790"/><path d="M1326.76 544.9c-.23-.12-.44-.18-.7-.2-.35-.1-.68-.05-1 .13-.1.06-.15.14-.16.25-.05.32.42.92 1.02 1h.14c.45 0 .82-.23 1-.64l.02-.06c.03-.1 0-.3-.32-.48zM1339.92 544.4c-.24-.05-.45-.05-.7 0-.48.06-.96.28-.92.58v.02c.18.38.52.6.93.6h.13c.27-.06.5-.18.68-.38.15-.14.24-.32.25-.52-.03-.14-.16-.25-.38-.3z" stroke="#000" stroke-opacity="0" stroke-width="1.32" fill="#fff"/><path d="M1348.3 557.38c-.23-.7-1.23-.5-1.57-.43-3.33.7-4.28 0-4.47-.16 2.48-3.84 4.05-7.4 5.2-11.77.9-3.75.87-6.7-.04-7.9-2.14-2.7-5.05-4.18-8.45-4.23-2.03-.07-3.7.16-5.62.76l-.08.04h-.03l-.08.04c-1.03-.28-1.9-.4-2.98-.4-1.87-.08-3.48.4-5.05 1.44-1.64-.6-3.1-1-4.8-1.24-2.57-.48-4.94-.04-7.16 1.32-2.22 1.6-3.25 4.42-3.02 8.4.08 1.92 2.83 17 7.15 18.43 1.14.3 2.33-.17 2.94-1.17 1.53-1.87 2.98-3.38 3.33-3.78.8.43 1.6.63 2.52.67v.24c-.16.2-.32.4-.43.56-.6.76-.73.92-2.6 1.32-.76.16-1.76.44-1.8 1.2 0 .75 1.04 1.23 1.68 1.4 2.1.67 4.25.15 5.78-1.4-.16 3.14 0 5.8.57 8.96.5 1.84 2.06 3.07 3.97 3.07.46 0 .88-.04 1.34-.16 2.54-.2 4.48-2.18 4.64-4.73.26-1.6.76-5.46.95-7.42.6.2 1.14.28 1.8.24 1.33.03 2.47-.2 3.73-.7 1.2-.58 2.87-1.74 2.57-2.62zm-8.87 2.08c-.12 1.07-.73 6.38-1.07 8.25-.08 2.2-1.76 3.92-3.94 4.04-1.76.6-3.67-.32-4.24-2.12-.04-.08-.04-.16-.08-.27-.57-3.63-.7-6.74-.46-10.45 0-.04 0-.12-.04-.2-.03-.12-.03-.24-.07-.4-.2-.56-.54-1-1.1-1.27l-.05-.04c-.42-.25-.92-.3-1.37-.1.16-.67.3-1.2.58-1.83l.08-.24c.1-.28.22-.56.34-.84.73-1.6 1.68-3.7.65-8.58-.04-.08-.04-.12-.04-.2-.37-1.6-1.94-2.6-3.5-2.2-1.27.17-2.3.53-3.37 1.2.08-3.02 1.03-5.57 2.94-7.93 1.53-1.48 3.37-2.2 5.5-2.08 3.26 0 6.05 1.24 8.26 3.63 1.42 1.5 2.37 3.03 3.02 5.02-2.25-.28-3.78.12-4.55 1.2-1.56 2.3.92 6.85 2.15 9.05.23.36.42.76.5.9.34.8.72 1.4 1.3 2.1.14.2.26.35.4.6h-.1c-.65.2-1.84.5-1.72 2.74zm-21.86 1.4c-1.42-.5-3.02-3.4-4.5-8.22-1.05-3.23-1.66-6.02-2.04-9.4-.2-3.68.7-6.27 2.64-7.66 1.45-.92 2.94-1.32 4.62-1.24 2.17.04 4 .36 6.03 1.08-.08.08-.2.16-.27.28-3.36 3.38-3.24 9.25-3.24 9.48v.04c.15 1.92.1 3.6-.08 5.5-.3 1.88.23 3.63 1.57 5.03.2.2.35.32.54.48-.53.6-1.87 2.03-3.3 3.75-.67.8-1.32 1.1-1.97.87zm4-10.05c.24-1.9.28-3.58.12-5.5 1.33-1.03 2.78-1.5 4.46-1.4.88.13 1.53.8 1.6 1.68 1 4.6.16 6.5-.56 8.06-.12.27-.27.6-.35.87l-.1.25c-.24.6-.43 1.16-.6 1.8-1.25 0-2.35-.48-3.23-1.4-1.1-1.2-1.57-2.7-1.34-4.34zm5.36 7.22c.04 0 .04-.04.08-.04.2-.32.62-.44.96-.24l.08.04c.6.32.88 1.12.57 1.76-1.25 1.75-3.4 2.43-5.42 1.75-.38-.1-.72-.25-1.03-.5.35-.23.7-.35 1.07-.4 2.1-.42 2.4-.7 3.1-1.62.2-.2.38-.44.65-.76zm13.4-4.34c-.06-.2-.25-.52-.48-1h-.04c-1.02-1.87-3.47-6.26-2.17-8.1.65-.75 1.57-1.07 2.52-.9.5 0 .88 0 1.38.07 0 .64-.08 1.2-.15 1.83-.16.68-.2 1.28-.23 1.96 0 .8.04 1.43.15 2.2.38 1.7.23 3.26-.5 4.85-.2-.33-.3-.57-.45-.92zm6.02-7.98c-1.15 3.8-2.53 6.82-4.6 10.2-.07-.1-.14-.23-.26-.35l-.1-.16h-.02c1-1.84 1.26-3.76.8-5.8-.12-.7-.15-1.3-.15-2.02.04-.68.07-1.2.2-1.88.14-.75.18-1.43.18-2.23 0-.12.05-.2 0-.28-1.14-4.2-3.8-7.3-7.8-8.98 7.16-1.75 10.83 1.8 12.1 3.43.94 1.24.83 4.1-.35 8.05zm-4.93 11.84c.1 0 .2-.04.3-.08.08.04.15.12.23.16 1.64.68 3.3.76 4.97.2.15-.04.3-.08.46-.08-.58.64-1.2 1.12-2.03 1.44-1.64.72-3.2.84-4.93.36-.1-.04-.1-.08-.1-.08-.13-1.56.48-1.72 1.1-1.92z" stroke="#000" stroke-opacity="0" stroke-width="1.32" fill="#fff"/><use xlink:href="#h" transform="matrix(1,0,0,1,1270,592.3333333333333) translate(11.024999999999999 14.4)"/><path d="M1920 589.33a6 6 0 0 1 6-6h68a6 6 0 0 1 6 6v48a6 6 0 0 1-6 6h-68a6 6 0 0 1-6-6z" stroke="#000" stroke-opacity="0" stroke-width="2" fill="#fff" fill-opacity="0"/><use xlink:href="#i" transform="matrix(1,0,0,1,1925,588.3333333333333) translate(12.191358024691361 30.27777777777778)"/><path d="M853.54 325.47A9.28 9.28 0 0 1 862 320h96a9.28 9.28 0 0 1 8.46 5.47l31.08 69.06a13.33 13.33 0 0 1 0 10.94l-31.08 69.06A9.28 9.28 0 0 1 958 480h-96a9.28 9.28 0 0 1-8.46-5.47l-31.08-69.06a13.33 13.33 0 0 1 0-10.94zM1733.54 225.47A9.28 9.28 0 0 1 1742 220h96a9.28 9.28 0 0 1 8.46 5.47l31.08 69.06a13.33 13.33 0 0 1 0 10.94l-31.08 69.06A9.28 9.28 0 0 1 1838 380h-96a9.28 9.28 0 0 1-8.46-5.47l-31.08-69.06a13.33 13.33 0 0 1 0-10.94z" stroke="#282c33" stroke-width="2" fill="#fff"/><path d="M1710 276a6 6 0 0 1 6-6h148a6 6 0 0 1 6 6v58a6 6 0 0 1-6 6h-148a6 6 0 0 1-6-6z" stroke="#000" stroke-opacity="0" stroke-width="2" fill="#fff" fill-opacity="0"/><use xlink:href="#j" transform="matrix(1,0,0,1,1715,275.00000000000006) translate(9.074074074074062 21.59027777777778)"/><use xlink:href="#k" transform="matrix(1,0,0,1,1715,275.00000000000006) translate(44.19753086419753 48.25694444444444)"/><path d="M1733.54 430.47A9.28 9.28 0 0 1 1742 425h96a9.28 9.28 0 0 1 8.46 5.47l31.08 69.06a13.33 13.33 0 0 1 0 10.94l-31.08 69.06A9.28 9.28 0 0 1 1838 585h-96a9.28 9.28 0 0 1-8.46-5.47l-31.08-69.06a13.33 13.33 0 0 1 0-10.94z" stroke="#282c33" stroke-width="2" fill="#fff"/><path d="M1690 482.67a6 6 0 0 1 6-6h188a6 6 0 0 1 6 6v48a6 6 0 0 1-6 6h-188a6 6 0 0 1-6-6z" stroke="#000" stroke-opacity="0" stroke-width="2" fill="#fff" fill-opacity="0"/><use xlink:href="#l" transform="matrix(1,0,0,1,1695,481.6666666666665) translate(20.4320987654321 20.90277777777778)"/><use xlink:href="#m" transform="matrix(1,0,0,1,1695,481.6666666666665) translate(96.91358024691358 20.90277777777778)"/><use xlink:href="#k" transform="matrix(1,0,0,1,1695,481.6666666666665) translate(64.19753086419753 47.56944444444444)"/><path d="M820 366a6 6 0 0 1 6-6h168a6 6 0 0 1 6 6v68a6 6 0 0 1-6 6H826a6 6 0 0 1-6-6z" stroke="#000" stroke-opacity="0" stroke-width="2" fill="#fff" fill-opacity="0"/><use xlink:href="#n" transform="matrix(1,0,0,1,825,365) translate(6.018518518518519 26.52777777777778)"/><use xlink:href="#o" transform="matrix(1,0,0,1,825,365) translate(99.78395061728395 26.52777777777778)"/><use xlink:href="#p" transform="matrix(1,0,0,1,825,365) translate(112.12962962962963 26.52777777777778)"/><use xlink:href="#q" transform="matrix(1,0,0,1,825,365) translate(52.345679012345684 53.19444444444445)"/><path d="M1734 64c-13.26 0-24-10.74-24-24 0-10.6 6.5-19.55 16.58-22.82C1726-14 1766-20 1782-8c8-18 48-12 48 6 24-6 48 18 32 48 16 24 0 54-32 42-8 15.6-40 15.6-48 0-16 12-48 6-48-24z" stroke="#282c33" stroke-width="2" fill="#fff"/><use xlink:href="#r" transform="matrix(1,0,0,1,1715,-15) translate(16.771604938271608 59.02777777777778)"/><path d="M1789.5 113.1v105.4" stroke="#3a414a" fill="none"/><path d="M1789.5 98.34l4.63 14.27h-9.27z" stroke="#3a414a" fill="#3a414a"/><path d="M1789.97 219h-.95v-.5h.95z" stroke="#3a414a" stroke-width=".05" fill="#3a414a"/><path d="M1264 64c-13.26 0-24-10.74-24-24 0-10.6 6.5-19.55 16.58-22.82C1256-14 1296-20 1312-8c8-18 48-12 48 6 24-6 48 18 32 48 16 24 0 54-32 42-8 15.6-40 15.6-48 0-16 12-48 6-48-24z" stroke="#282c33" stroke-width="2" fill="#fff"/><use xlink:href="#s" transform="matrix(1,0,0,1,1245,-15) translate(33.739567901234565 45.27777777777778)"/><use xlink:href="#t" transform="matrix(1,0,0,1,1245,-15) translate(120.0975925925926 45.27777777777778)"/><use xlink:href="#u" transform="matrix(1,0,0,1,1245,-15) translate(37.48030864197531 71.94444444444446)"/><use xlink:href="#v" transform="matrix(1,0,0,1,1245,-15) translate(87.97413580246914 71.94444444444446)"/><path d="M1319.5 113.1v286.4" stroke="#3a414a" fill="none"/><path d="M1319.5 98.34l4.63 14.27h-9.27z" stroke="#3a414a" fill="#3a414a"/><path d="M1319.97 400h-.95v-.5h.95z" stroke="#3a414a" stroke-width=".05" fill="#3a414a"/><path d="M1240.2 320h73.3a6 6 0 0 0 6-6V113.1" stroke="#3a414a" fill="none"/><path d="M1240.23 320.48h-.54v-.96h.53z" stroke="#3a414a" stroke-width=".05" fill="#3a414a"/><path d="M1319.5 98.34l4.63 14.27h-9.27z" stroke="#3a414a" fill="#3a414a"/><path d="M693.54-14.53A9.28 9.28 0 0 1 702-20h96a9.28 9.28 0 0 1 8.46 5.47l31.08 69.06a13.33 13.33 0 0 1 0 10.94l-31.08 69.06A9.28 9.28 0 0 1 798 140h-96a9.28 9.28 0 0 1-8.46-5.47l-31.08-69.06a13.33 13.33 0 0 1 0-10.94z" stroke="#282c33" stroke-width="2" fill="#fff"/><use xlink:href="#w" transform="matrix(1,0,0,1,665,-15) translate(33.801296296296286 50.59027777777778)"/><use xlink:href="#x" transform="matrix(1,0,0,1,665,-15) translate(130.03586419753088 50.59027777777778)"/><use xlink:href="#y" transform="matrix(1,0,0,1,665,-15) translate(65.28277777777778 77.25694444444446)"/><use xlink:href="#z" transform="matrix(1,0,0,1,665,-15) translate(48.029691358024685 103.92361111111111)"/><path d="M1419.8 320h-94.3a6 6 0 0 1-6-6V113.1" stroke="#3a414a" fill="none"/><path d="M1420.3 320v.48h-.53v-.96h.54z" stroke="#3a414a" stroke-width=".05" fill="#3a414a"/><path d="M1319.5 98.34l4.63 14.27h-9.27z" stroke="#3a414a" fill="#3a414a"/><path d="M1320 104.33a6 6 0 0 1 6-6h228a6 6 0 0 1 6 6v51.34a6 6 0 0 1-6 6h-228a6 6 0 0 1-6-6z" stroke="#000" stroke-opacity="0" stroke-width="2" fill="#fff" fill-opacity="0"/><g><use xlink:href="#A" transform="matrix(1,0,0,1,1325,103.33333333333334) translate(14.506172839506178 21.15277777777778)"/><use xlink:href="#B" transform="matrix(1,0,0,1,1325,103.33333333333334) translate(72.53086419753086 21.15277777777778)"/><use xlink:href="#C" transform="matrix(1,0,0,1,1325,103.33333333333334) translate(196.97530864197532 21.15277777777778)"/><use xlink:href="#D" transform="matrix(1,0,0,1,1325,103.33333333333334) translate(12.716049382716037 47.81944444444444)"/><use xlink:href="#E" transform="matrix(1,0,0,1,1325,103.33333333333334) translate(71.91358024691357 47.81944444444444)"/><use xlink:href="#F" transform="matrix(1,0,0,1,1325,103.33333333333334) translate(181.54320987654324 47.81944444444444)"/></g><path d="M750 141.5v215.97a6 6 0 0 0 6 6h48.2" stroke="#3a414a" fill="none"/><path d="M750.48 141.5h-.96v-.5h.96z" stroke="#3a414a" stroke-width=".05" fill="#3a414a"/><path d="M818.95 363.47l-14.26 4.64v-9.26z" stroke="#3a414a" fill="#3a414a"/><path d="M480 274.33a6 6 0 0 1 6-6h188a6 6 0 0 1 6 6v251.34a6 6 0 0 1-6 6H486a6 6 0 0 1-6-6z" fill="#fff"/><path d="M497.75 268.33h7.83m7.84 0h7.83m7.83 0h7.84m7.83 0h7.83m7.84 0h7.83m7.83 0h7.84m7.83 0h7.83m7.84 0h7.83m7.83 0h7.84m7.83 0h7.83m7.84 0h7.83m7.83 0H674l.94.08.9.23.88.36.8.48.72.6.6.73.5.8.37.88.23.9.07.95v3.93m0 7.86v7.85m0 7.85v7.86m0 7.85v7.86m0 7.84v7.85m0 7.85v7.85m0 7.86v7.85m0 7.87v7.85m0 7.85v7.86m0 7.85v7.86m0 7.85v7.84m0 7.86v7.85m0 7.86v7.86m0 7.86v7.85m0 7.85v7.86m0 7.85v7.86m0 7.84v3.93l-.07.94-.22.92-.35.87-.5.8-.6.7-.72.62-.8.5-.88.35-.9.22-.95.07h-3.92m-7.83 0h-7.83m-7.84 0h-7.83m-7.83 0h-7.84m-7.83 0h-7.83m-7.84 0h-7.83m-7.83 0h-7.84m-7.83 0h-7.83m-7.84 0h-7.83m-7.83 0h-7.84m-7.83 0h-7.83m-7.84 0h-7.83m-7.83 0H486l-.94-.08-.9-.23-.88-.36-.8-.48-.72-.6-.6-.73-.5-.8-.37-.88-.23-.9-.07-.95v-3.93m0-7.86v-7.85m0-7.85v-7.86m0-7.85v-7.86m0-7.84v-7.85m0-7.85v-7.85m0-7.86v-7.85m0-7.87v-7.85m0-7.85v-7.86m0-7.85v-7.86m0-7.85v-7.84m0-7.86v-7.85m0-7.86v-7.86m0-7.86v-7.85m0-7.85v-7.86m0-7.85v-7.86m0-7.84v-3.93l.07-.94.22-.92.35-.87.5-.8.6-.7.72-.62.8-.5.88-.35.9-.22.95-.07h3.92" stroke="#282c33" stroke-width="2" fill="none"/><g><use xlink:href="#G" transform="matrix(1,0,0,1,485,273.33333333333337) translate(74.6604938271605 128.90277777777777)"/></g><path d="M614.82 345.14h-69.7c-2.8 0-5.12-2.3-5.12-5.08V294.4c0-2.78 2.32-5.07 5.12-5.07h69.7c2.8 0 5.1 2.3 5.1 5.08V340c0 2.85-2.23 5.14-5.02 5.14h-.08zm-69.62-52.4c-.96 0-1.76.72-1.76 1.67V340c0 .95.8 1.73 1.76 1.73h69.7c.96 0 1.68-.78 1.68-1.73v-45.6c0-.94-.72-1.66-1.68-1.66zM614 367.33h-68.05c-3.28-.02-5.92-2.65-5.92-5.92v-7.33c0-3.27 2.64-5.95 5.92-5.96H614c3.28 0 6 2.68 6 5.97v7.34c0 3.3-2.72 5.93-6 5.93zm-68.05-15.84c-1.36 0-2.48 1.16-2.48 2.57v7.34c0 1.42 1.12 2.53 2.48 2.55H614c1.44 0 2.56-1.15 2.56-2.58v-7.3c0-1.43-1.12-2.58-2.56-2.58z" stroke="#fff" stroke-opacity="0" fill="#232f3e"/><path d="M611.9 338.78h-63.8c-.95 0-1.7-.78-1.7-1.68v-39.78c0-.9.75-1.68 1.7-1.68h63.8c.95 0 1.7.78 1.7 1.68v39.78c0 .9-.75 1.68-1.7 1.68zm-62.06-3.4h60.32v-36.33h-60.32zM592.74 354.46h19.16c1.13 0 1.7.57 1.7 1.7v3.2c0 1.12-.58 1.68-1.7 1.68h-19.16c-1.12 0-1.7-.56-1.7-1.7v-3.18c0-1.13.58-1.7 1.7-1.7z" stroke="#fff" stroke-opacity="0" fill="#232f3e"/><path d="M600.26 388.33c7 0 12.74 5.64 12.74 12.6V498c0 5.65-4.7 10.33-10.5 10.33h-45c-5.8 0-10.5-4.68-10.5-10.32v-97.07c0-6.96 5.74-12.6 12.8-12.6zm-47.78 24.12v76.2h55.04v-76.2zm7.32-18.6c-4.02 0-7.32 3.12-7.32 7.08v6h55.04v-6c0-3.96-3.3-7.08-7.32-7.08zm42.7 108.96c2.78 0 5.02-2.15 5.02-4.8v-3.83h-55.04V498c0 2.65 2.24 4.8 5 4.8zm-25.2-99.7v-5.4h14.78v5.4zm-9.38 2.27c-2.77 0-4.95-2.16-4.95-4.92s2.18-4.92 4.95-4.92 4.95 2.16 4.95 4.92-2.18 4.92-4.95 4.92zm0-5.76c-.46 0-.86.37-.86.85s.4.84.86.84c.46 0 .86-.37.86-.85s-.4-.84-.86-.84z" stroke="#000" stroke-opacity="0" fill="#232f3d"/><path d="M681.5 400h122.4" stroke="#3a414a" fill="none"/><path d="M681.5 400.48h-.5v-.96h.5z" stroke="#3a414a" stroke-width=".05" fill="#3a414a"/><path d="M818.67 400l-14.27 4.63v-9.26z" stroke="#3a414a" fill="#3a414a"/><defs><path fill="#3a414a" d="M205 0l-28-72H64L36 0H1l101-248h38L239 0h-34zm-38-99l-47-123c-12 45-31 82-46 123h93" id="H"/><path fill="#3a414a" d="M96-169c-40 0-48 33-48 73s9 75 48 75c24 0 41-14 43-38l32 2c-6 37-31 61-74 61-59 0-76-41-82-99-10-93 101-131 147-64 4 7 5 14 7 22l-32 3c-4-21-16-35-41-35" id="I"/><path fill="#3a414a" d="M100-194c62-1 85 37 85 99 1 63-27 99-86 99S16-35 15-95c0-66 28-99 85-99zM99-20c44 1 53-31 53-75 0-43-8-75-51-75s-53 32-53 75 10 74 51 75" id="J"/><path fill="#3a414a" d="M84 4C-5 8 30-112 23-190h32v120c0 31 7 50 39 49 72-2 45-101 50-169h31l1 190h-30c-1-10 1-25-2-33-11 22-28 36-60 37" id="K"/><path fill="#3a414a" d="M117-194c89-4 53 116 60 194h-32v-121c0-31-8-49-39-48C34-167 62-67 57 0H25l-1-190h30c1 10-1 24 2 32 11-22 29-35 61-36" id="L"/><path fill="#3a414a" d="M59-47c-2 24 18 29 38 22v24C64 9 27 4 27-40v-127H5v-23h24l9-43h21v43h35v23H59v120" id="M"/><path fill="#3a414a" d="M135-143c-3-34-86-38-87 0 15 53 115 12 119 90S17 21 10-45l28-5c4 36 97 45 98 0-10-56-113-15-118-90-4-57 82-63 122-42 12 7 21 19 24 35" id="N"/><g id="a"><use transform="matrix(0.06172839506172839,0,0,0.06172839506172839,0,0)" xlink:href="#H"/><use transform="matrix(0.06172839506172839,0,0,0.06172839506172839,14.814814814814813,0)" xlink:href="#I"/><use transform="matrix(0.06172839506172839,0,0,0.06172839506172839,25.925925925925924,0)" xlink:href="#I"/><use transform="matrix(0.06172839506172839,0,0,0.06172839506172839,37.03703703703704,0)" xlink:href="#J"/><use transform="matrix(0.06172839506172839,0,0,0.06172839506172839,49.382716049382715,0)" xlink:href="#K"/><use transform="matrix(0.06172839506172839,0,0,0.06172839506172839,61.72839506172839,0)" xlink:href="#L"/><use transform="matrix(0.06172839506172839,0,0,0.06172839506172839,74.07407407407408,0)" xlink:href="#M"/><use transform="matrix(0.06172839506172839,0,0,0.06172839506172839,80.24691358024691,0)" xlink:href="#N"/></g><path fill="#3a414a" d="M210-169c-67 3-38 105-44 169h-31v-121c0-29-5-50-35-48C34-165 62-65 56 0H25l-1-190h30c1 10-1 24 2 32 10-44 99-50 107 0 11-21 27-35 58-36 85-2 47 119 55 194h-31v-121c0-29-5-49-35-48" id="O"/><path fill="#3a414a" d="M24-231v-30h32v30H24zM24 0v-190h32V0H24" id="P"/><path fill="#3a414a" d="M114-163C36-179 61-72 57 0H25l-1-190h30c1 12-1 29 2 39 6-27 23-49 58-41v29" id="Q"/><path fill="#3a414a" d="M100-194c63 0 86 42 84 106H49c0 40 14 67 53 68 26 1 43-12 49-29l28 8c-11 28-37 45-77 45C44 4 14-33 15-96c1-61 26-98 85-98zm52 81c6-60-76-77-97-28-3 7-6 17-6 28h103" id="R"/><path fill="#3a414a" d="M108 0H70L1-190h34L89-25l56-165h34" id="S"/><g id="b"><use transform="matrix(0.06172839506172839,0,0,0.06172839506172839,0,0)" xlink:href="#O"/><use transform="matrix(0.06172839506172839,0,0,0.06172839506172839,18.456790123456788,0)" xlink:href="#P"/><use transform="matrix(0.06172839506172839,0,0,0.06172839506172839,23.33333333333333,0)" xlink:href="#I"/><use transform="matrix(0.06172839506172839,0,0,0.06172839506172839,34.44444444444444,0)" xlink:href="#Q"/><use transform="matrix(0.06172839506172839,0,0,0.06172839506172839,41.79012345679012,0)" xlink:href="#J"/><use transform="matrix(0.06172839506172839,0,0,0.06172839506172839,54.1358024691358,0)" xlink:href="#N"/><use transform="matrix(0.06172839506172839,0,0,0.06172839506172839,65.24691358024691,0)" xlink:href="#R"/><use transform="matrix(0.06172839506172839,0,0,0.06172839506172839,77.5925925925926,0)" xlink:href="#Q"/><use transform="matrix(0.06172839506172839,0,0,0.06172839506172839,84.93827160493828,0)" xlink:href="#S"/><use transform="matrix(0.06172839506172839,0,0,0.06172839506172839,96.0493827160494,0)" xlink:href="#P"/><use transform="matrix(0.06172839506172839,0,0,0.06172839506172839,100.92592592592594,0)" xlink:href="#I"/><use transform="matrix(0.06172839506172839,0,0,0.06172839506172839,112.03703703703705,0)" xlink:href="#R"/></g><path d="M141-36C126-15 110 5 73 4 37 3 15-17 15-53c-1-64 63-63 125-63 3-35-9-54-41-54-24 1-41 7-42 31l-33-3c5-37 33-52 76-52 45 0 72 20 72 64v82c-1 20 7 32 28 27v20c-31 9-61-2-59-35zM48-53c0 20 12 33 32 33 41-3 63-29 60-74-43 2-92-5-92 41" id="T"/><path d="M96-169c-40 0-48 33-48 73s9 75 48 75c24 0 41-14 43-38l32 2c-6 37-31 61-74 61-59 0-76-41-82-99-10-93 101-131 147-64 4 7 5 14 7 22l-32 3c-4-21-16-35-41-35" id="U"/><path d="M100-194c62-1 85 37 85 99 1 63-27 99-86 99S16-35 15-95c0-66 28-99 85-99zM99-20c44 1 53-31 53-75 0-43-8-75-51-75s-53 32-53 75 10 74 51 75" id="V"/><path d="M84 4C-5 8 30-112 23-190h32v120c0 31 7 50 39 49 72-2 45-101 50-169h31l1 190h-30c-1-10 1-25-2-33-11 22-28 36-60 37" id="W"/><path d="M117-194c89-4 53 116 60 194h-32v-121c0-31-8-49-39-48C34-167 62-67 57 0H25l-1-190h30c1 10-1 24 2 32 11-22 29-35 61-36" id="X"/><path d="M59-47c-2 24 18 29 38 22v24C64 9 27 4 27-40v-127H5v-23h24l9-43h21v43h35v23H59v120" id="Y"/><path d="M135-143c-3-34-86-38-87 0 15 53 115 12 119 90S17 21 10-45l28-5c4 36 97 45 98 0-10-56-113-15-118-90-4-57 82-63 122-42 12 7 21 19 24 35" id="Z"/><path d="M85-194c31 0 48 13 60 33l-1-100h32l1 261h-30c-2-10 0-23-3-31C134-8 116 4 85 4 32 4 16-35 15-94c0-66 23-100 70-100zm9 24c-40 0-46 34-46 75 0 40 6 74 45 74 42 0 51-32 51-76 0-42-9-74-50-73" id="aa"/><path d="M115-194c53 0 69 39 70 98 0 66-23 100-70 100C84 3 66-7 56-30L54 0H23l1-261h32v101c10-23 28-34 59-34zm-8 174c40 0 45-34 45-75 0-40-5-75-45-74-42 0-51 32-51 76 0 43 10 73 51 73" id="ab"/><g id="c"><use transform="matrix(0.05,0,0,0.05,0,0)" xlink:href="#T"/><use transform="matrix(0.05,0,0,0.05,10,0)" xlink:href="#U"/><use transform="matrix(0.05,0,0,0.05,19,0)" xlink:href="#U"/><use transform="matrix(0.05,0,0,0.05,28,0)" xlink:href="#V"/><use transform="matrix(0.05,0,0,0.05,38,0)" xlink:href="#W"/><use transform="matrix(0.05,0,0,0.05,48,0)" xlink:href="#X"/><use transform="matrix(0.05,0,0,0.05,58,0)" xlink:href="#Y"/><use transform="matrix(0.05,0,0,0.05,63,0)" xlink:href="#Z"/><use transform="matrix(0.05,0,0,0.05,72,0)" xlink:href="#aa"/><use transform="matrix(0.05,0,0,0.05,82,0)" xlink:href="#ab"/></g><path fill="#3a414a" d="M232-93c-1 65-40 97-104 97C67 4 28-28 28-90v-158h33c8 89-33 224 67 224 102 0 64-133 71-224h33v155" id="ac"/><g id="e"><use transform="matrix(0.06172839506172839,0,0,0.06172839506172839,0,0)" xlink:href="#ac"/><use transform="matrix(0.06172839506172839,0,0,0.06172839506172839,15.987654320987653,0)" xlink:href="#N"/><use transform="matrix(0.06172839506172839,0,0,0.06172839506172839,27.098765432098766,0)" xlink:href="#R"/><use transform="matrix(0.06172839506172839,0,0,0.06172839506172839,39.44444444444444,0)" xlink:href="#Q"/><use transform="matrix(0.06172839506172839,0,0,0.06172839506172839,46.79012345679012,0)" xlink:href="#N"/></g><path d="M100-194c63 0 86 42 84 106H49c0 40 14 67 53 68 26 1 43-12 49-29l28 8c-11 28-37 45-77 45C44 4 14-33 15-96c1-61 26-98 85-98zm52 81c6-60-76-77-97-28-3 7-6 17-6 28h103" id="ad"/><path d="M114-163C36-179 61-72 57 0H25l-1-190h30c1 12-1 29 2 39 6-27 23-49 58-41v29" id="ae"/><g id="f"><use transform="matrix(0.05,0,0,0.05,0,0)" xlink:href="#W"/><use transform="matrix(0.05,0,0,0.05,10,0)" xlink:href="#Z"/><use transform="matrix(0.05,0,0,0.05,19,0)" xlink:href="#ad"/><use transform="matrix(0.05,0,0,0.05,29,0)" xlink:href="#ae"/><use transform="matrix(0.05,0,0,0.05,34.95,0)" xlink:href="#Z"/><use transform="matrix(0.05,0,0,0.05,43.95,0)" xlink:href="#aa"/><use transform="matrix(0.05,0,0,0.05,53.95,0)" xlink:href="#ab"/></g><path fill="#3a414a" d="M30-248c87 1 191-15 191 75 0 78-77 80-158 76V0H30v-248zm33 125c57 0 124 11 124-50 0-59-68-47-124-48v98" id="af"/><path fill="#3a414a" d="M141-36C126-15 110 5 73 4 37 3 15-17 15-53c-1-64 63-63 125-63 3-35-9-54-41-54-24 1-41 7-42 31l-33-3c5-37 33-52 76-52 45 0 72 20 72 64v82c-1 20 7 32 28 27v20c-31 9-61-2-59-35zM48-53c0 20 12 33 32 33 41-3 63-29 60-74-43 2-92-5-92 41" id="ag"/><path fill="#3a414a" d="M179-190L93 31C79 59 56 82 12 73V49c39 6 53-20 64-50L1-190h34L92-34l54-156h33" id="ah"/><g id="g"><use transform="matrix(0.06172839506172839,0,0,0.06172839506172839,0,0)" xlink:href="#af"/><use transform="matrix(0.06172839506172839,0,0,0.06172839506172839,14.814814814814813,0)" xlink:href="#ag"/><use transform="matrix(0.06172839506172839,0,0,0.06172839506172839,27.160493827160494,0)" xlink:href="#ah"/><use transform="matrix(0.06172839506172839,0,0,0.06172839506172839,38.27160493827161,0)" xlink:href="#O"/><use transform="matrix(0.06172839506172839,0,0,0.06172839506172839,56.72839506172839,0)" xlink:href="#R"/><use transform="matrix(0.06172839506172839,0,0,0.06172839506172839,69.07407407407408,0)" xlink:href="#L"/><use transform="matrix(0.06172839506172839,0,0,0.06172839506172839,81.41975308641976,0)" xlink:href="#M"/><use transform="matrix(0.06172839506172839,0,0,0.06172839506172839,87.5925925925926,0)" xlink:href="#N"/></g><path d="M115-194c55 1 70 41 70 98S169 2 115 4C84 4 66-9 55-30l1 105H24l-1-265h31l2 30c10-21 28-34 59-34zm-8 174c40 0 45-34 45-75s-6-73-45-74c-42 0-51 32-51 76 0 43 10 73 51 73" id="ai"/><path d="M179-190L93 31C79 59 56 82 12 73V49c39 6 53-20 64-50L1-190h34L92-34l54-156h33" id="aj"/><path d="M210-169c-67 3-38 105-44 169h-31v-121c0-29-5-50-35-48C34-165 62-65 56 0H25l-1-190h30c1 10-1 24 2 32 10-44 99-50 107 0 11-21 27-35 58-36 85-2 47 119 55 194h-31v-121c0-29-5-49-35-48" id="ak"/><g id="h"><use transform="matrix(0.05,0,0,0.05,0,0)" xlink:href="#ai"/><use transform="matrix(0.05,0,0,0.05,10,0)" xlink:href="#T"/><use transform="matrix(0.05,0,0,0.05,20,0)" xlink:href="#aj"/><use transform="matrix(0.05,0,0,0.05,29,0)" xlink:href="#ak"/><use transform="matrix(0.05,0,0,0.05,43.95,0)" xlink:href="#ad"/><use transform="matrix(0.05,0,0,0.05,53.95,0)" xlink:href="#X"/><use transform="matrix(0.05,0,0,0.05,63.95,0)" xlink:href="#Y"/><use transform="matrix(0.05,0,0,0.05,68.95,0)" xlink:href="#Z"/><use transform="matrix(0.05,0,0,0.05,77.95,0)" xlink:href="#aa"/><use transform="matrix(0.05,0,0,0.05,87.95,0)" xlink:href="#ab"/></g><path fill="#3a414a" d="M137 0h-34L2-248h35l83 218 83-218h36" id="al"/><path fill="#3a414a" d="M190 0L58-211 59 0H30v-248h39L202-35l-2-213h31V0h-41" id="am"/><g id="i"><use transform="matrix(0.06172839506172839,0,0,0.06172839506172839,0,0)" xlink:href="#al"/><use transform="matrix(0.06172839506172839,0,0,0.06172839506172839,14.814814814814813,0)" xlink:href="#af"/><use transform="matrix(0.06172839506172839,0,0,0.06172839506172839,29.629629629629626,0)" xlink:href="#am"/></g><path fill="#3a414a" d="M212-179c-10-28-35-45-73-45-59 0-87 40-87 99 0 60 29 101 89 101 43 0 62-24 78-52l27 14C228-24 195 4 139 4 59 4 22-46 18-125c-6-104 99-153 187-111 19 9 31 26 39 46" id="an"/><path fill="#3a414a" d="M101-234c-31-9-42 10-38 44h38v23H63V0H32v-167H5v-23h27c-7-52 17-82 69-68v24" id="ao"/><path fill="#3a414a" d="M177-190C167-65 218 103 67 71c-23-6-38-20-44-43l32-5c15 47 100 32 89-28v-30C133-14 115 1 83 1 29 1 15-40 15-95c0-56 16-97 71-98 29-1 48 16 59 35 1-10 0-23 2-32h30zM94-22c36 0 50-32 50-73 0-42-14-75-50-75-39 0-46 34-46 75s6 73 46 73" id="ap"/><g id="j"><use transform="matrix(0.06172839506172839,0,0,0.06172839506172839,0,0)" xlink:href="#an"/><use transform="matrix(0.06172839506172839,0,0,0.06172839506172839,15.987654320987653,0)" xlink:href="#J"/><use transform="matrix(0.06172839506172839,0,0,0.06172839506172839,28.333333333333332,0)" xlink:href="#L"/><use transform="matrix(0.06172839506172839,0,0,0.06172839506172839,40.67901234567901,0)" xlink:href="#ao"/><use transform="matrix(0.06172839506172839,0,0,0.06172839506172839,46.851851851851855,0)" xlink:href="#P"/><use transform="matrix(0.06172839506172839,0,0,0.06172839506172839,51.7283950617284,0)" xlink:href="#ap"/><use transform="matrix(0.06172839506172839,0,0,0.06172839506172839,64.07407407407408,0)" xlink:href="#K"/><use transform="matrix(0.06172839506172839,0,0,0.06172839506172839,76.41975308641976,0)" xlink:href="#Q"/><use transform="matrix(0.06172839506172839,0,0,0.06172839506172839,83.76543209876544,0)" xlink:href="#ag"/><use transform="matrix(0.06172839506172839,0,0,0.06172839506172839,96.11111111111113,0)" xlink:href="#M"/><use transform="matrix(0.06172839506172839,0,0,0.06172839506172839,102.28395061728396,0)" xlink:href="#P"/><use transform="matrix(0.06172839506172839,0,0,0.06172839506172839,107.16049382716051,0)" xlink:href="#J"/><use transform="matrix(0.06172839506172839,0,0,0.06172839506172839,119.50617283950619,0)" xlink:href="#L"/></g><g id="k"><use transform="matrix(0.06172839506172839,0,0,0.06172839506172839,0,0)" xlink:href="#N"/><use transform="matrix(0.06172839506172839,0,0,0.06172839506172839,11.11111111111111,0)" xlink:href="#R"/><use transform="matrix(0.06172839506172839,0,0,0.06172839506172839,23.45679012345679,0)" xlink:href="#Q"/><use transform="matrix(0.06172839506172839,0,0,0.06172839506172839,30.80246913580247,0)" xlink:href="#S"/><use transform="matrix(0.06172839506172839,0,0,0.06172839506172839,41.91358024691358,0)" xlink:href="#R"/><use transform="matrix(0.06172839506172839,0,0,0.06172839506172839,54.25925925925926,0)" xlink:href="#Q"/></g><path fill="#3a414a" d="M30 0v-248h187v28H63v79h144v27H63v87h162V0H30" id="aq"/><path fill="#3a414a" d="M143 0L79-87 56-68V0H24v-261h32v163l83-92h37l-77 82L181 0h-38" id="ar"/><g id="l"><use transform="matrix(0.06172839506172839,0,0,0.06172839506172839,0,0)" xlink:href="#aq"/><use transform="matrix(0.06172839506172839,0,0,0.06172839506172839,14.814814814814813,0)" xlink:href="#K"/><use transform="matrix(0.06172839506172839,0,0,0.06172839506172839,27.160493827160494,0)" xlink:href="#Q"/><use transform="matrix(0.06172839506172839,0,0,0.06172839506172839,34.50617283950617,0)" xlink:href="#R"/><use transform="matrix(0.06172839506172839,0,0,0.06172839506172839,46.85185185185185,0)" xlink:href="#ar"/><use transform="matrix(0.06172839506172839,0,0,0.06172839506172839,57.96296296296296,0)" xlink:href="#ag"/></g><g id="m"><use transform="matrix(0.06172839506172839,0,0,0.06172839506172839,0,0)" xlink:href="#Q"/><use transform="matrix(0.06172839506172839,0,0,0.06172839506172839,7.345679012345679,0)" xlink:href="#R"/><use transform="matrix(0.06172839506172839,0,0,0.06172839506172839,19.691358024691358,0)" xlink:href="#ap"/><use transform="matrix(0.06172839506172839,0,0,0.06172839506172839,32.03703703703704,0)" xlink:href="#P"/><use transform="matrix(0.06172839506172839,0,0,0.06172839506172839,36.91358024691358,0)" xlink:href="#N"/><use transform="matrix(0.06172839506172839,0,0,0.06172839506172839,48.0246913580247,0)" xlink:href="#M"/><use transform="matrix(0.06172839506172839,0,0,0.06172839506172839,54.19753086419754,0)" xlink:href="#Q"/><use transform="matrix(0.06172839506172839,0,0,0.06172839506172839,61.543209876543216,0)" xlink:href="#ah"/></g><path fill="#3a414a" d="M143 4C61 4 22-44 18-125c-5-107 100-154 193-111 17 8 29 25 37 43l-32 9c-13-25-37-40-76-40-61 0-88 39-88 99 0 61 29 100 91 101 35 0 62-11 79-27v-45h-74v-28h105v86C228-13 192 4 143 4" id="as"/><path fill="#3a414a" d="M206 0h-36l-40-164L89 0H53L-1-190h32L70-26l43-164h34l41 164 42-164h31" id="at"/><g id="n"><use transform="matrix(0.06172839506172839,0,0,0.06172839506172839,0,0)" xlink:href="#as"/><use transform="matrix(0.06172839506172839,0,0,0.06172839506172839,17.28395061728395,0)" xlink:href="#ag"/><use transform="matrix(0.06172839506172839,0,0,0.06172839506172839,29.629629629629626,0)" xlink:href="#M"/><use transform="matrix(0.06172839506172839,0,0,0.06172839506172839,35.80246913580247,0)" xlink:href="#R"/><use transform="matrix(0.06172839506172839,0,0,0.06172839506172839,48.148148148148145,0)" xlink:href="#at"/><use transform="matrix(0.06172839506172839,0,0,0.06172839506172839,64.1358024691358,0)" xlink:href="#ag"/><use transform="matrix(0.06172839506172839,0,0,0.06172839506172839,76.48148148148148,0)" xlink:href="#ah"/></g><path fill="#3a414a" d="M0 4l72-265h28L28 4H0" id="au"/><use transform="matrix(0.06172839506172839,0,0,0.06172839506172839,0,0)" xlink:href="#au" id="o"/><path fill="#3a414a" d="M85-194c31 0 48 13 60 33l-1-100h32l1 261h-30c-2-10 0-23-3-31C134-8 116 4 85 4 32 4 16-35 15-94c0-66 23-100 70-100zm9 24c-40 0-46 34-46 75 0 40 6 74 45 74 42 0 51-32 51-76 0-42-9-74-50-73" id="av"/><g id="p"><use transform="matrix(0.06172839506172839,0,0,0.06172839506172839,0,0)" xlink:href="#aq"/><use transform="matrix(0.06172839506172839,0,0,0.06172839506172839,14.814814814814813,0)" xlink:href="#av"/><use transform="matrix(0.06172839506172839,0,0,0.06172839506172839,27.160493827160494,0)" xlink:href="#ap"/><use transform="matrix(0.06172839506172839,0,0,0.06172839506172839,39.50617283950617,0)" xlink:href="#R"/></g><path fill="#3a414a" d="M185-189c-5-48-123-54-124 2 14 75 158 14 163 119 3 78-121 87-175 55-17-10-28-26-33-46l33-7c5 56 141 63 141-1 0-78-155-14-162-118-5-82 145-84 179-34 5 7 8 16 11 25" id="aw"/><g id="q"><use transform="matrix(0.06172839506172839,0,0,0.06172839506172839,0,0)" xlink:href="#aw"/><use transform="matrix(0.06172839506172839,0,0,0.06172839506172839,14.814814814814813,0)" xlink:href="#R"/><use transform="matrix(0.06172839506172839,0,0,0.06172839506172839,27.160493827160494,0)" xlink:href="#Q"/><use transform="matrix(0.06172839506172839,0,0,0.06172839506172839,34.50617283950617,0)" xlink:href="#S"/><use transform="matrix(0.06172839506172839,0,0,0.06172839506172839,45.61728395061728,0)" xlink:href="#R"/><use transform="matrix(0.06172839506172839,0,0,0.06172839506172839,57.962962962962955,0)" xlink:href="#Q"/></g><path fill="#3a414a" d="M106-169C34-169 62-67 57 0H25v-261h32l-1 103c12-21 28-36 61-36 89 0 53 116 60 194h-32v-121c2-32-8-49-39-48" id="ax"/><path fill="#3a414a" d="M115-194c53 0 69 39 70 98 0 66-23 100-70 100C84 3 66-7 56-30L54 0H23l1-261h32v101c10-23 28-34 59-34zm-8 174c40 0 45-34 45-75 0-40-5-75-45-74-42 0-51 32-51 76 0 43 10 73 51 73" id="ay"/><path fill="#3a414a" d="M33 0v-38h34V0H33" id="az"/><g id="r"><use transform="matrix(0.06172839506172839,0,0,0.06172839506172839,0,0)" xlink:href="#as"/><use transform="matrix(0.06172839506172839,0,0,0.06172839506172839,17.28395061728395,0)" xlink:href="#P"/><use transform="matrix(0.06172839506172839,0,0,0.06172839506172839,22.160493827160494,0)" xlink:href="#M"/><use transform="matrix(0.06172839506172839,0,0,0.06172839506172839,28.333333333333332,0)" xlink:href="#ax"/><use transform="matrix(0.06172839506172839,0,0,0.06172839506172839,40.67901234567901,0)" xlink:href="#K"/><use transform="matrix(0.06172839506172839,0,0,0.06172839506172839,53.02469135802469,0)" xlink:href="#ay"/><use transform="matrix(0.06172839506172839,0,0,0.06172839506172839,65.37037037037037,0)" xlink:href="#az"/><use transform="matrix(0.06172839506172839,0,0,0.06172839506172839,71.5432098765432,0)" xlink:href="#I"/><use transform="matrix(0.06172839506172839,0,0,0.06172839506172839,82.65432098765432,0)" xlink:href="#J"/><use transform="matrix(0.06172839506172839,0,0,0.06172839506172839,95,0)" xlink:href="#O"/></g><g id="s"><use transform="matrix(0.06172839506172839,0,0,0.06172839506172839,0,0)" xlink:href="#as"/><use transform="matrix(0.06172839506172839,0,0,0.06172839506172839,17.28395061728395,0)" xlink:href="#Q"/><use transform="matrix(0.06172839506172839,0,0,0.06172839506172839,24.629629629629626,0)" xlink:href="#ag"/><use transform="matrix(0.06172839506172839,0,0,0.06172839506172839,36.9753086419753,0)" xlink:href="#ao"/><use transform="matrix(0.06172839506172839,0,0,0.06172839506172839,43.148148148148145,0)" xlink:href="#ag"/><use transform="matrix(0.06172839506172839,0,0,0.06172839506172839,55.49382716049382,0)" xlink:href="#L"/><use transform="matrix(0.06172839506172839,0,0,0.06172839506172839,67.8395061728395,0)" xlink:href="#ag"/></g><use transform="matrix(0.06172839506172839,0,0,0.06172839506172839,0,0)" xlink:href="#au" id="t"/><g id="u"><use transform="matrix(0.06172839506172839,0,0,0.06172839506172839,0,0)" xlink:href="#am"/><use transform="matrix(0.06172839506172839,0,0,0.06172839506172839,15.987654320987653,0)" xlink:href="#R"/><use transform="matrix(0.06172839506172839,0,0,0.06172839506172839,28.333333333333332,0)" xlink:href="#at"/></g><path fill="#3a414a" d="M24 0v-261h32V0H24" id="aA"/><g id="v"><use transform="matrix(0.06172839506172839,0,0,0.06172839506172839,0,0)" xlink:href="#Q"/><use transform="matrix(0.06172839506172839,0,0,0.06172839506172839,7.345679012345679,0)" xlink:href="#R"/><use transform="matrix(0.06172839506172839,0,0,0.06172839506172839,19.691358024691358,0)" xlink:href="#aA"/><use transform="matrix(0.06172839506172839,0,0,0.06172839506172839,24.5679012345679,0)" xlink:href="#P"/><use transform="matrix(0.06172839506172839,0,0,0.06172839506172839,29.444444444444443,0)" xlink:href="#I"/></g><path fill="#3a414a" d="M194 0L95-120 63-95V0H30v-248h33v124l119-124h40L117-140 236 0h-42" id="aB"/><g id="w"><use transform="matrix(0.06172839506172839,0,0,0.06172839506172839,0,0)" xlink:href="#aB"/><use transform="matrix(0.06172839506172839,0,0,0.06172839506172839,14.814814814814813,0)" xlink:href="#R"/><use transform="matrix(0.06172839506172839,0,0,0.06172839506172839,27.160493827160494,0)" xlink:href="#ah"/><use transform="matrix(0.06172839506172839,0,0,0.06172839506172839,38.27160493827161,0)" xlink:href="#I"/><use transform="matrix(0.06172839506172839,0,0,0.06172839506172839,49.38271604938272,0)" xlink:href="#aA"/><use transform="matrix(0.06172839506172839,0,0,0.06172839506172839,54.25925925925927,0)" xlink:href="#J"/><use transform="matrix(0.06172839506172839,0,0,0.06172839506172839,66.60493827160495,0)" xlink:href="#ag"/><use transform="matrix(0.06172839506172839,0,0,0.06172839506172839,78.95061728395063,0)" xlink:href="#ar"/></g><use transform="matrix(0.06172839506172839,0,0,0.06172839506172839,0,0)" xlink:href="#au" id="x"/><path fill="#3a414a" d="M33 0v-248h34V0H33" id="aC"/><path fill="#3a414a" d="M240 0l2-218c-23 76-54 145-80 218h-23L58-218 59 0H30v-248h44l77 211c21-75 51-140 76-211h43V0h-30" id="aD"/><g id="y"><use transform="matrix(0.06172839506172839,0,0,0.06172839506172839,0,0)" xlink:href="#aC"/><use transform="matrix(0.06172839506172839,0,0,0.06172839506172839,6.172839506172839,0)" xlink:href="#H"/><use transform="matrix(0.06172839506172839,0,0,0.06172839506172839,20.98765432098765,0)" xlink:href="#aD"/></g><g id="z"><use transform="matrix(0.06172839506172839,0,0,0.06172839506172839,0,0)" xlink:href="#aw"/><use transform="matrix(0.06172839506172839,0,0,0.06172839506172839,14.814814814814813,0)" xlink:href="#R"/><use transform="matrix(0.06172839506172839,0,0,0.06172839506172839,27.160493827160494,0)" xlink:href="#Q"/><use transform="matrix(0.06172839506172839,0,0,0.06172839506172839,34.50617283950617,0)" xlink:href="#S"/><use transform="matrix(0.06172839506172839,0,0,0.06172839506172839,45.61728395061728,0)" xlink:href="#P"/><use transform="matrix(0.06172839506172839,0,0,0.06172839506172839,50.49382716049382,0)" xlink:href="#I"/><use transform="matrix(0.06172839506172839,0,0,0.06172839506172839,61.60493827160494,0)" xlink:href="#R"/></g><g id="A"><use transform="matrix(0.06172839506172839,0,0,0.06172839506172839,0,0)" xlink:href="#aw"/><use transform="matrix(0.06172839506172839,0,0,0.06172839506172839,14.814814814814813,0)" xlink:href="#R"/><use transform="matrix(0.06172839506172839,0,0,0.06172839506172839,27.160493827160494,0)" xlink:href="#L"/><use transform="matrix(0.06172839506172839,0,0,0.06172839506172839,39.50617283950617,0)" xlink:href="#av"/></g><g id="B"><use transform="matrix(0.06172839506172839,0,0,0.06172839506172839,0,0)" xlink:href="#aA"/><use transform="matrix(0.06172839506172839,0,0,0.06172839506172839,4.876543209876543,0)" xlink:href="#J"/><use transform="matrix(0.06172839506172839,0,0,0.06172839506172839,17.22222222222222,0)" xlink:href="#ap"/><use transform="matrix(0.06172839506172839,0,0,0.06172839506172839,29.5679012345679,0)" xlink:href="#N"/><use transform="matrix(0.06172839506172839,0,0,0.06172839506172839,40.67901234567901,0)" xlink:href="#au"/><use transform="matrix(0.06172839506172839,0,0,0.06172839506172839,46.851851851851855,0)" xlink:href="#O"/><use transform="matrix(0.06172839506172839,0,0,0.06172839506172839,65.30864197530865,0)" xlink:href="#R"/><use transform="matrix(0.06172839506172839,0,0,0.06172839506172839,77.65432098765433,0)" xlink:href="#M"/><use transform="matrix(0.06172839506172839,0,0,0.06172839506172839,83.82716049382717,0)" xlink:href="#Q"/><use transform="matrix(0.06172839506172839,0,0,0.06172839506172839,91.17283950617285,0)" xlink:href="#P"/><use transform="matrix(0.06172839506172839,0,0,0.06172839506172839,96.0493827160494,0)" xlink:href="#I"/><use transform="matrix(0.06172839506172839,0,0,0.06172839506172839,107.16049382716051,0)" xlink:href="#N"/></g><g id="C"><use transform="matrix(0.06172839506172839,0,0,0.06172839506172839,0,0)" xlink:href="#M"/><use transform="matrix(0.06172839506172839,0,0,0.06172839506172839,6.172839506172839,0)" xlink:href="#J"/></g><g id="D"><use transform="matrix(0.06172839506172839,0,0,0.06172839506172839,0,0)" xlink:href="#I"/><use transform="matrix(0.06172839506172839,0,0,0.06172839506172839,11.11111111111111,0)" xlink:href="#aA"/><use transform="matrix(0.06172839506172839,0,0,0.06172839506172839,15.987654320987653,0)" xlink:href="#J"/><use transform="matrix(0.06172839506172839,0,0,0.06172839506172839,28.333333333333332,0)" xlink:href="#K"/><use transform="matrix(0.06172839506172839,0,0,0.06172839506172839,40.67901234567901,0)" xlink:href="#av"/></g><g id="E"><use transform="matrix(0.06172839506172839,0,0,0.06172839506172839,0,0)" xlink:href="#O"/><use transform="matrix(0.06172839506172839,0,0,0.06172839506172839,18.456790123456788,0)" xlink:href="#J"/><use transform="matrix(0.06172839506172839,0,0,0.06172839506172839,30.80246913580247,0)" xlink:href="#L"/><use transform="matrix(0.06172839506172839,0,0,0.06172839506172839,43.148148148148145,0)" xlink:href="#P"/><use transform="matrix(0.06172839506172839,0,0,0.06172839506172839,48.02469135802469,0)" xlink:href="#M"/><use transform="matrix(0.06172839506172839,0,0,0.06172839506172839,54.19753086419753,0)" xlink:href="#J"/><use transform="matrix(0.06172839506172839,0,0,0.06172839506172839,66.54320987654322,0)" xlink:href="#Q"/><use transform="matrix(0.06172839506172839,0,0,0.06172839506172839,73.8888888888889,0)" xlink:href="#P"/><use transform="matrix(0.06172839506172839,0,0,0.06172839506172839,78.76543209876544,0)" xlink:href="#L"/><use transform="matrix(0.06172839506172839,0,0,0.06172839506172839,91.11111111111113,0)" xlink:href="#ap"/></g><g id="F"><use transform="matrix(0.06172839506172839,0,0,0.06172839506172839,0,0)" xlink:href="#M"/><use transform="matrix(0.06172839506172839,0,0,0.06172839506172839,6.172839506172839,0)" xlink:href="#J"/><use transform="matrix(0.06172839506172839,0,0,0.06172839506172839,18.51851851851852,0)" xlink:href="#J"/><use transform="matrix(0.06172839506172839,0,0,0.06172839506172839,30.864197530864196,0)" xlink:href="#aA"/></g><path fill="#3a414a" d="M127-220V0H93v-220H8v-28h204v28h-85" id="aE"/><path fill="#3a414a" d="M141 0L90-78 38 0H4l68-98-65-92h35l48 74 47-74h35l-64 92 68 98h-35" id="aF"/><g id="G"><use transform="matrix(0.06172839506172839,0,0,0.06172839506172839,0,0)" xlink:href="#aE"/><use transform="matrix(0.06172839506172839,0,0,0.06172839506172839,11.049382716049381,0)" xlink:href="#R"/><use transform="matrix(0.06172839506172839,0,0,0.06172839506172839,23.39506172839506,0)" xlink:href="#aF"/><use transform="matrix(0.06172839506172839,0,0,0.06172839506172839,34.50617283950617,0)" xlink:href="#M"/></g></defs></g></svg>